<svg id="visual" viewBox="0 0 960 540" width="960" height="540" xmlns="http://www.w3.org/2000/svg" xmlns:xlink="http://www.w3.org/1999/xlink" version="1.1"><rect x="0" y="0" width="960" height="540" fill="#1f3584"></rect><path d="M0 364L17.8 361.3C35.7 358.7 71.3 353.3 106.8 347.8C142.3 342.3 177.7 336.7 213.2 339.3C248.7 342 284.3 353 320 361.2C355.7 369.3 391.3 374.7 426.8 375.3C462.3 376 497.7 372 533.2 365.7C568.7 359.3 604.3 350.7 640 348.7C675.7 346.7 711.3 351.3 746.8 354.5C782.3 357.7 817.7 359.3 853.2 361.8C888.7 364.3 924.3 367.7 942.2 369.3L960 371L960 541L942.2 541C924.3 541 888.7 541 853.2 541C817.7 541 782.3 541 746.8 541C711.3 541 675.7 541 640 541C604.3 541 568.7 541 533.2 541C497.7 541 462.3 541 426.8 541C391.3 541 355.7 541 320 541C284.3 541 248.7 541 213.2 541C177.7 541 142.3 541 106.8 541C71.3 541 35.7 541 17.8 541L0 541Z" fill="#045bcd"></path><path d="M0 401L17.8 401.8C35.7 402.7 71.3 404.3 106.8 405.5C142.3 406.7 177.7 407.3 213.2 398.7C248.7 390 284.3 372 320 369.5C355.7 367 391.3 380 426.8 382.7C462.3 385.3 497.7 377.7 533.2 376.8C568.7 376 604.3 382 640 389.3C675.7 396.7 711.3 405.3 746.8 406.8C782.3 408.3 817.7 402.7 853.2 396.5C888.7 390.3 924.3 383.7 942.2 380.3L960 377L960 541L942.2 541C924.3 541 888.7 541 853.2 541C817.7 541 782.3 541 746.8 541C711.3 541 675.7 541 640 541C604.3 541 568.7 541 533.2 541C497.7 541 462.3 541 426.8 541C391.3 541 355.7 541 320 541C284.3 541 248.7 541 213.2 541C177.7 541 142.3 541 106.8 541C71.3 541 35.7 541 17.8 541L0 541Z" fill="#0067d5"></path><path d="M0 437L17.8 434.7C35.7 432.3 71.3 427.7 106.8 426.7C142.3 425.7 177.7 428.3 213.2 423.2C248.7 418 284.3 405 320 402.7C355.7 400.3 391.3 408.7 426.8 408.2C462.3 407.7 497.7 398.3 533.2 401.7C568.7 405 604.3 421 640 420.3C675.7 419.7 711.3 402.3 746.8 399.3C782.3 396.3 817.7 407.7 853.2 410.2C888.7 412.7 924.3 406.3 942.2 403.2L960 400L960 541L942.2 541C924.3 541 888.7 541 853.2 541C817.7 541 782.3 541 746.8 541C711.3 541 675.7 541 640 541C604.3 541 568.7 541 533.2 541C497.7 541 462.3 541 426.8 541C391.3 541 355.7 541 320 541C284.3 541 248.7 541 213.2 541C177.7 541 142.3 541 106.8 541C71.3 541 35.7 541 17.8 541L0 541Z" fill="#0673dc"></path><path d="M0 412L17.8 411.7C35.7 411.3 71.3 410.7 106.8 416.3C142.3 422 177.7 434 213.2 433.2C248.7 432.3 284.3 418.7 320 412.3C355.7 406 391.3 407 426.8 414.7C462.3 422.3 497.7 436.7 533.2 439.8C568.7 443 604.3 435 640 427.8C675.7 420.7 711.3 414.3 746.8 412.3C782.3 410.3 817.7 412.7 853.2 418.2C888.7 423.7 924.3 432.3 942.2 436.7L960 441L960 541L942.2 541C924.3 541 888.7 541 853.2 541C817.7 541 782.3 541 746.8 541C711.3 541 675.7 541 640 541C604.3 541 568.7 541 533.2 541C497.7 541 462.3 541 426.8 541C391.3 541 355.7 541 320 541C284.3 541 248.7 541 213.2 541C177.7 541 142.3 541 106.8 541C71.3 541 35.7 541 17.8 541L0 541Z" fill="#147ee2"></path><path d="M0 446L17.8 446.5C35.7 447 71.3 448 106.8 445.3C142.3 442.7 177.7 436.3 213.2 437.2C248.7 438 284.3 446 320 448C355.7 450 391.3 446 426.8 442.7C462.3 439.3 497.7 436.7 533.2 438C568.7 439.3 604.3 444.7 640 450.5C675.7 456.3 711.3 462.7 746.8 465.7C782.3 468.7 817.7 468.3 853.2 469.2C888.7 470 924.3 472 942.2 473L960 474L960 541L942.2 541C924.3 541 888.7 541 853.2 541C817.7 541 782.3 541 746.8 541C711.3 541 675.7 541 640 541C604.3 541 568.7 541 533.2 541C497.7 541 462.3 541 426.8 541C391.3 541 355.7 541 320 541C284.3 541 248.7 541 213.2 541C177.7 541 142.3 541 106.8 541C71.3 541 35.7 541 17.8 541L0 541Z" fill="#228ae8"></path><path d="M0 477L17.8 477.3C35.7 477.7 71.3 478.3 106.8 473.3C142.3 468.3 177.7 457.7 213.2 453.2C248.7 448.7 284.3 450.3 320 455.7C355.7 461 391.3 470 426.8 477.2C462.3 484.3 497.7 489.7 533.2 490.2C568.7 490.7 604.3 486.3 640 485C675.7 483.7 711.3 485.3 746.8 481.3C782.3 477.3 817.7 467.7 853.2 461.3C888.7 455 924.3 452 942.2 450.5L960 449L960 541L942.2 541C924.3 541 888.7 541 853.2 541C817.7 541 782.3 541 746.8 541C711.3 541 675.7 541 640 541C604.3 541 568.7 541 533.2 541C497.7 541 462.3 541 426.8 541C391.3 541 355.7 541 320 541C284.3 541 248.7 541 213.2 541C177.7 541 142.3 541 106.8 541C71.3 541 35.7 541 17.8 541L0 541Z" fill="#3195ed"></path><path d="M0 515L17.8 509.5C35.7 504 71.3 493 106.8 490.3C142.3 487.7 177.7 493.3 213.2 498.8C248.7 504.3 284.3 509.7 320 504.8C355.7 500 391.3 485 426.8 481C462.3 477 497.7 484 533.2 485.7C568.7 487.3 604.3 483.7 640 480.8C675.7 478 711.3 476 746.8 479.2C782.3 482.3 817.7 490.7 853.2 497.8C888.7 505 924.3 511 942.2 514L960 517L960 541L942.2 541C924.3 541 888.7 541 853.2 541C817.7 541 782.3 541 746.8 541C711.3 541 675.7 541 640 541C604.3 541 568.7 541 533.2 541C497.7 541 462.3 541 426.8 541C391.3 541 355.7 541 320 541C284.3 541 248.7 541 213.2 541C177.7 541 142.3 541 106.8 541C71.3 541 35.7 541 17.8 541L0 541Z" fill="#40a1f2"></path><path d="M0 534L17.8 527.7C35.7 521.3 71.3 508.7 106.8 508C142.3 507.3 177.7 518.7 213.2 523.7C248.7 528.7 284.3 527.3 320 527.3C355.7 527.3 391.3 528.7 426.8 527C462.3 525.3 497.7 520.7 533.2 514.8C568.7 509 604.3 502 640 505.2C675.7 508.3 711.3 521.7 746.8 523.7C782.3 525.7 817.7 516.3 853.2 513.7C888.7 511 924.3 515 942.2 517L960 519L960 541L942.2 541C924.3 541 888.7 541 853.2 541C817.7 541 782.3 541 746.8 541C711.3 541 675.7 541 640 541C604.3 541 568.7 541 533.2 541C497.7 541 462.3 541 426.8 541C391.3 541 355.7 541 320 541C284.3 541 248.7 541 213.2 541C177.7 541 142.3 541 106.8 541C71.3 541 35.7 541 17.8 541L0 541Z" fill="#4facf7"></path></svg>