<svg id="visual" viewBox="0 0 960 540" width="960" height="540" xmlns="http://www.w3.org/2000/svg" xmlns:xlink="http://www.w3.org/1999/xlink" version="1.1"><rect x="0" y="0" width="960" height="540" fill="#FFFFFF"></rect><path d="M0 130L22.8 141.2C45.7 152.3 91.3 174.7 137 178C182.7 181.3 228.3 165.7 274 147C319.7 128.3 365.3 106.7 411.2 97.5C457 88.3 503 91.7 548.8 106C594.7 120.3 640.3 145.7 686 149.8C731.7 154 777.3 137 823 134.2C868.7 131.3 914.3 142.7 937.2 148.3L960 154L960 0L937.2 0C914.3 0 868.7 0 823 0C777.3 0 731.7 0 686 0C640.3 0 594.7 0 548.8 0C503 0 457 0 411.2 0C365.3 0 319.7 0 274 0C228.3 0 182.7 0 137 0C91.3 0 45.7 0 22.8 0L0 0Z" fill="#4FACF7" stroke-linecap="round" stroke-linejoin="miter"></path></svg>